<svg width="1200" height="360" viewBox="0 0 1200 360" fill="none" xmlns="http://www.w3.org/2000/svg">
  <defs>
    <linearGradient id="bg" x1="0" y1="0" x2="1200" y2="360" gradientUnits="userSpaceOnUse">
      <stop offset="0" stop-color="#07111F"/>
      <stop offset="0.42" stop-color="#0E2A3D"/>
      <stop offset="1" stop-color="#143728"/>
    </linearGradient>
    <linearGradient id="cubeA" x1="430" y1="80" x2="805" y2="300" gradientUnits="userSpaceOnUse">
      <stop stop-color="#64D2FF"/>
      <stop offset="0.52" stop-color="#4ADE80"/>
      <stop offset="1" stop-color="#FACC15"/>
    </linearGradient>
    <linearGradient id="cubeB" x1="495" y1="105" x2="870" y2="320" gradientUnits="userSpaceOnUse">
      <stop stop-color="#A78BFA"/>
      <stop offset="0.46" stop-color="#22D3EE"/>
      <stop offset="1" stop-color="#34D399"/>
    </linearGradient>
    <radialGradient id="glow" cx="0" cy="0" r="1" gradientUnits="userSpaceOnUse" gradientTransform="translate(790 135) rotate(145) scale(430 210)">
      <stop stop-color="#7DD3FC" stop-opacity="0.48"/>
      <stop offset="1" stop-color="#7DD3FC" stop-opacity="0"/>
    </radialGradient>
    <filter id="blur" x="-20%" y="-20%" width="140%" height="140%">
      <feGaussianBlur stdDeviation="18"/>
    </filter>
  </defs>

  <rect width="1200" height="360" rx="26" fill="url(#bg)"/>
  <rect width="1200" height="360" rx="26" fill="url(#glow)"/>

  <g opacity="0.22">
    <path d="M0 78H1200" stroke="#E2E8F0"/>
    <path d="M0 146H1200" stroke="#E2E8F0"/>
    <path d="M0 214H1200" stroke="#E2E8F0"/>
    <path d="M0 282H1200" stroke="#E2E8F0"/>
    <path d="M110 0V360" stroke="#E2E8F0"/>
    <path d="M250 0V360" stroke="#E2E8F0"/>
    <path d="M390 0V360" stroke="#E2E8F0"/>
    <path d="M530 0V360" stroke="#E2E8F0"/>
    <path d="M670 0V360" stroke="#E2E8F0"/>
    <path d="M810 0V360" stroke="#E2E8F0"/>
    <path d="M950 0V360" stroke="#E2E8F0"/>
    <path d="M1090 0V360" stroke="#E2E8F0"/>
  </g>

  <g filter="url(#blur)" opacity="0.45">
    <ellipse cx="772" cy="185" rx="250" ry="92" fill="#22D3EE"/>
    <ellipse cx="905" cy="215" rx="170" ry="66" fill="#4ADE80"/>
  </g>

  <g transform="translate(620 52)">
    <path d="M0 68L160 18L322 82L162 140L0 68Z" fill="url(#cubeA)" opacity="0.92"/>
    <path d="M0 68L162 140V270L0 196V68Z" fill="#0EA5E9" opacity="0.70"/>
    <path d="M162 140L322 82V208L162 270V140Z" fill="#22C55E" opacity="0.67"/>
    <path d="M0 68L160 18L322 82L162 140L0 68Z" stroke="#E0F2FE" stroke-opacity="0.9" stroke-width="2"/>
    <path d="M0 68L162 140M162 140L322 82M162 140V270M0 196L162 270L322 208" stroke="#E0F2FE" stroke-opacity="0.72" stroke-width="2"/>
    <g opacity="0.78">
      <path d="M36 83L196 35" stroke="#FEF08A" stroke-width="2"/>
      <path d="M68 98L228 50" stroke="#BAE6FD" stroke-width="2"/>
      <path d="M101 113L261 65" stroke="#BBF7D0" stroke-width="2"/>
      <path d="M35 103L196 175" stroke="#E0F2FE" stroke-opacity="0.45"/>
      <path d="M35 128L196 200" stroke="#E0F2FE" stroke-opacity="0.45"/>
      <path d="M35 153L196 225" stroke="#E0F2FE" stroke-opacity="0.45"/>
      <path d="M196 175L288 140" stroke="#E0F2FE" stroke-opacity="0.45"/>
      <path d="M196 200L288 165" stroke="#E0F2FE" stroke-opacity="0.45"/>
      <path d="M196 225L288 190" stroke="#E0F2FE" stroke-opacity="0.45"/>
    </g>
  </g>

  <g transform="translate(95 62)">
    <text x="0" y="36" fill="#BAE6FD" font-family="Segoe UI, Arial, sans-serif" font-size="18" letter-spacing="3">HYPERSPECTRAL REMOTE SENSING</text>
    <text x="0" y="94" fill="#F8FAFC" font-family="Segoe UI, Arial, sans-serif" font-size="48" font-weight="700">Dunbin Shen</text>
    <text x="0" y="136" fill="#D1FAE5" font-family="Segoe UI, Arial, sans-serif" font-size="24">Machine Learning for Intelligent Image Interpretation</text>
    <g transform="translate(0 176)">
      <rect x="0" y="0" width="145" height="38" rx="19" fill="#E0F2FE" fill-opacity="0.14" stroke="#7DD3FC" stroke-opacity="0.55"/>
      <text x="21" y="25" fill="#E0F2FE" font-family="Segoe UI, Arial, sans-serif" font-size="15">Target Detection</text>
      <rect x="162" y="0" width="154" height="38" rx="19" fill="#DCFCE7" fill-opacity="0.13" stroke="#86EFAC" stroke-opacity="0.52"/>
      <text x="184" y="25" fill="#DCFCE7" font-family="Segoe UI, Arial, sans-serif" font-size="15">Image Fusion</text>
      <rect x="334" y="0" width="171" height="38" rx="19" fill="#FEF3C7" fill-opacity="0.13" stroke="#FDE68A" stroke-opacity="0.52"/>
      <text x="357" y="25" fill="#FEF3C7" font-family="Segoe UI, Arial, sans-serif" font-size="15">State Space Models</text>
    </g>
  </g>

  <g transform="translate(940 62)" opacity="0.94">
    <path d="M77 35L116 55L84 82L44 62L77 35Z" fill="#E2E8F0"/>
    <path d="M112 18L136 30L119 46L94 34L112 18Z" fill="#CBD5E1"/>
    <path d="M58 78L74 86L58 100L42 92L58 78Z" fill="#FDE68A"/>
    <path d="M90 58L141 94" stroke="#BAE6FD" stroke-width="3" stroke-linecap="round"/>
    <path d="M79 69L129 105" stroke="#BAE6FD" stroke-width="2" stroke-linecap="round" opacity="0.65"/>
    <circle cx="154" cy="106" r="7" fill="#22D3EE"/>
  </g>
</svg>
